<svg width="24" height="24" viewBox="0 0 24 24" fill="none" xmlns="http://www.w3.org/2000/svg">
<path d="M18.6719 17.19C19.0656 17.6262 19.0656 18.2804 18.6719 18.6729C18.2344 19.109 17.5781 19.109 17.1844 18.6729L12.0219 13.4829L6.81563 18.6729C6.37813 19.109 5.72188 19.109 5.32812 18.6729C4.89062 18.2804 4.89062 17.6262 5.32812 17.19L10.5344 12L5.32812 6.80997C4.89062 6.37383 4.89062 5.71963 5.32812 5.3271C5.72188 4.89097 6.37813 4.89097 6.77188 5.3271L12.0219 10.5607L17.2281 5.37072C17.6219 4.93458 18.2781 4.93458 18.6719 5.37072C19.1094 5.76324 19.1094 6.41745 18.6719 6.85358L13.4656 12L18.6719 17.19Z" fill="white"/>
</svg>
