<svg width="24" height="24" viewBox="0 0 24 24" fill="none" xmlns="http://www.w3.org/2000/svg">
<path d="M4 6.84375C4 6.38672 4.35156 6 4.84375 6H18.9062C19.3633 6 19.75 6.38672 19.75 6.84375C19.75 7.33594 19.3633 7.6875 18.9062 7.6875H4.84375C4.35156 7.6875 4 7.33594 4 6.84375ZM4 12.4688C4 12.0117 4.35156 11.625 4.84375 11.625H18.9062C19.3633 11.625 19.75 12.0117 19.75 12.4688C19.75 12.9609 19.3633 13.3125 18.9062 13.3125H4.84375C4.35156 13.3125 4 12.9609 4 12.4688ZM18.9062 18.9375H4.84375C4.35156 18.9375 4 18.5859 4 18.0938C4 17.6367 4.35156 17.25 4.84375 17.25H18.9062C19.3633 17.25 19.75 17.6367 19.75 18.0938C19.75 18.5859 19.3633 18.9375 18.9062 18.9375Z" fill="white" fill-opacity="0.75"/>
</svg>
