<svg width="20" height="20" viewBox="0 0 20 20" fill="none" xmlns="http://www.w3.org/2000/svg">
<path d="M10 2.70833C14.1309 2.70833 17.5 6.07747 17.5 10.2083C17.5 14.3685 14.1309 17.7083 10 17.7083C5.83984 17.7083 2.5 14.3685 2.5 10.2083C2.5 6.07747 5.83984 2.70833 10 2.70833ZM10 16.3021C13.3398 16.3021 16.0938 13.5775 16.0938 10.2083C16.0938 6.86849 13.3398 4.11458 10 4.11458C6.63086 4.11458 3.90625 6.86849 3.90625 10.2083C3.90625 13.5775 6.63086 16.3021 10 16.3021ZM11.1719 12.5521C11.5527 12.5521 11.875 12.8744 11.875 13.2552C11.875 13.6654 11.5527 13.9583 11.1719 13.9583H8.82812C8.41797 13.9583 8.125 13.6654 8.125 13.2552C8.125 12.8744 8.41797 12.5521 8.82812 12.5521H9.29688V10.6771H9.0625C8.65234 10.6771 8.35938 10.3841 8.35938 9.97396C8.35938 9.5931 8.65234 9.27083 9.0625 9.27083H10C10.3809 9.27083 10.7031 9.5931 10.7031 9.97396V12.5521H11.1719ZM10 8.33333C9.47266 8.33333 9.0625 7.92318 9.0625 7.39583C9.0625 6.89779 9.47266 6.45833 10 6.45833C10.498 6.45833 10.9375 6.89779 10.9375 7.39583C10.9375 7.92318 10.498 8.33333 10 8.33333Z" fill="white"/>
</svg>
