<svg width="20" height="20" viewBox="0 0 20 20" fill="none" xmlns="http://www.w3.org/2000/svg">
<path d="M6.6623 6.22093C6.16456 6.7506 5.78393 7.33913 5.57897 7.98651C5.40329 8.48675 4.84699 8.75159 4.37852 8.57503C3.88077 8.39847 3.61726 7.8688 3.79293 7.36855C4.11501 6.45634 4.64203 5.60297 5.34474 4.89674C7.89203 2.33665 12.0204 2.33665 14.597 4.86731L15.8267 3.63141C16.0024 3.45485 16.3245 3.396 16.588 3.48428C16.8515 3.60198 17.0272 3.86682 17.0272 4.13165V7.89823C17.0272 8.3102 16.7051 8.60446 16.3245 8.60446H16.061H12.5767C12.2839 8.60446 12.0204 8.45733 11.9033 8.19249C11.8155 7.92765 11.874 7.60396 12.079 7.39798L13.2794 6.1915C11.4348 4.39649 8.5069 4.39649 6.6623 6.22093ZM2.97311 11.194C2.97311 10.8114 3.26591 10.4877 3.67582 10.4877H3.88077H3.91005H7.42357C7.68708 10.4877 7.95059 10.6643 8.06771 10.9291C8.15555 11.194 8.09699 11.5177 7.92131 11.6942L6.69158 12.9301C8.53618 14.7251 11.4934 14.7251 13.3087 12.9007C13.8064 12.371 14.1871 11.7825 14.4213 11.1351C14.5677 10.6349 15.124 10.37 15.5925 10.5466C16.0902 10.7232 16.3537 11.2528 16.1781 11.7531C15.856 12.6653 15.329 13.4892 14.6263 14.2249C12.079 16.785 7.95059 16.785 5.37402 14.2543L4.17356 15.4608C3.96861 15.6668 3.64654 15.7256 3.38302 15.6374C3.11951 15.5196 2.97311 15.2548 2.97311 14.9605V11.4588V11.4294V11.194Z" fill="#FFFFFF1A"/>
</svg>
