<svg width="20" height="20" viewBox="0 0 20 20" fill="none" xmlns="http://www.w3.org/2000/svg">
<path d="M18.8898 16.2687C19.2048 16.5033 19.262 16.943 19.0044 17.2362C18.8612 17.4121 18.6608 17.5 18.4604 17.5C18.3172 17.5 18.1741 17.4707 18.0309 17.3241L1.11011 3.75085C0.795174 3.51632 0.737913 3.07658 0.99559 2.78342C1.22464 2.46095 1.6541 2.40232 1.94041 2.66616L6.97943 6.71175L10.3006 3.69222C10.4724 3.51632 10.7014 3.42837 10.9305 3.42837C11.045 3.42837 11.1595 3.45769 11.3027 3.51632C11.6176 3.6629 11.8467 4.01469 11.8467 4.36648V10.5814L13.3927 11.842C13.3068 11.5782 13.3927 11.285 13.6218 11.0798C13.9367 10.816 14.1371 10.4349 14.1371 9.99513C14.1371 9.58471 13.9367 9.2036 13.6218 8.93976C13.3068 8.67592 13.2782 8.23618 13.5073 7.94302C13.6504 7.76712 13.8508 7.67918 14.0512 7.67918C14.1944 7.67918 14.3662 7.73781 14.4807 7.82576C15.1392 8.38276 15.5114 9.17429 15.5114 9.99513C15.5114 10.8453 15.1392 11.6368 14.4807 12.1938C14.3662 12.2818 14.1944 12.3404 14.0512 12.3404C14.0226 12.3404 14.0226 12.3404 13.994 12.3404L15.2824 13.3371C15.311 13.3078 15.311 13.2785 15.3396 13.2492C16.3131 12.4577 16.8857 11.2557 16.8857 9.99513C16.8857 8.76386 16.3131 7.56191 15.3396 6.7997C15.0533 6.53586 14.9961 6.09612 15.2537 5.80296C15.3969 5.62706 15.5687 5.53912 15.7691 5.53912C15.9409 5.53912 16.084 5.59775 16.2272 5.6857C17.5156 6.74107 18.26 8.32413 18.26 9.99513C18.26 11.6075 17.5442 13.1319 16.3703 14.2166L18.8898 16.2687ZM10.4724 9.46744V5.42185L8.09603 7.59123L10.4724 9.46744ZM10.4724 14.5977V13.0733L11.8467 14.158V15.6238C11.8467 16.0049 11.6176 16.3274 11.3027 16.5033C11.1595 16.5619 11.045 16.5619 10.9305 16.5619C10.7014 16.5619 10.4724 16.5033 10.3006 16.298L6.43544 12.8095H4.05909C3.28605 12.8095 2.68481 12.1938 2.68481 11.4023V8.58797C2.68481 8.06028 2.97112 7.62054 3.37195 7.38602L4.91801 8.61728H4.05909V11.4023H6.97943L10.4724 14.5977Z" fill="#F96718"/>
</svg>
